<?xml version="1.0" standalone="no"?>
<!DOCTYPE svg PUBLIC "-//W3C//DTD SVG 20010904//EN"
 "http://www.w3.org/TR/2001/REC-SVG-20010904/DTD/svg10.dtd">
<svg version="1.0" xmlns="http://www.w3.org/2000/svg"
 width="512.000000pt" height="512.000000pt" viewBox="0 0 512.000000 512.000000"
 preserveAspectRatio="xMidYMid meet">
<g transform="translate(0.000000,512.000000) scale(0.100000,-0.100000)"
fill="#000000" stroke="none">
<path d="M386 5104 c-132 -32 -260 -131 -323 -250 -67 -126 -63 27 -63 -2294
0 -2321 -4 -2168 63 -2294 41 -78 125 -162 203 -203 126 -67 -27 -63 2294 -63
2321 0 2168 -4 2294 63 78 41 162 125 203 203 67 126 63 -27 63 2294 0 1842
-2 2113 -15 2169 -44 184 -192 332 -376 376 -94 22 -4251 21 -4343 -1z m1671
-795 c37 -14 549 -523 574 -571 24 -47 24 -99 0 -146 -11 -20 -140 -157 -288
-304 -236 -235 -273 -268 -313 -278 -87 -23 -96 -17 -399 283 -150 150 -279
286 -287 304 -19 45 -17 97 5 141 20 37 528 550 566 571 26 14 106 14 142 0z
m1671 -3 c32 -18 555 -542 571 -573 15 -31 14 -109 -3 -141 -8 -15 -137 -149
-288 -299 -302 -300 -311 -306 -398 -283 -40 10 -77 43 -314 278 -315 313
-332 340 -290 440 15 38 471 506 548 563 32 24 49 29 93 29 30 0 66 -6 81 -14z
m-2500 -830 c15 -8 152 -140 304 -293 241 -243 277 -283 284 -316 15 -86 5
-100 -294 -399 -299 -299 -313 -309 -399 -294 -33 7 -73 43 -316 284 -153 152
-285 289 -293 304 -17 32 -18 95 -3 135 11 31 515 543 564 574 36 23 114 25
153 5z m1660 -1 c38 -16 505 -471 563 -549 24 -32 29 -49 29 -93 0 -30 -6 -66
-14 -81 -22 -41 -547 -560 -579 -572 -39 -14 -92 -13 -130 4 -18 8 -154 137
-304 287 -300 303 -306 312 -283 402 10 36 49 79 278 310 147 148 283 277 302
287 43 23 89 25 138 5z m840 -834 c48 -25 557 -537 571 -574 17 -43 13 -104
-8 -145 -28 -54 -527 -547 -573 -567 -50 -20 -91 -19 -136 4 -20 11 -159 142
-308 293 -250 251 -272 276 -279 315 -14 86 -12 88 279 382 149 150 285 282
301 292 39 24 105 24 153 0z m-843 -830 c26 -12 136 -115 312 -292 293 -296
295 -298 278 -386 -5 -33 -45 -76 -293 -325 -281 -280 -288 -287 -335 -294
-36 -5 -58 -2 -86 11 -24 11 -137 116 -309 288 -228 229 -272 279 -283 315
-25 85 -16 98 279 396 316 317 339 333 437 287z"/>
</g>
</svg>
