<svg width="23" height="23" viewBox="0 0 23 23" fill="none" xmlns="http://www.w3.org/2000/svg">
<path d="M9.88499 2.90724C10.4708 2.21581 11.5373 2.21581 12.1231 2.90724L12.829 3.74047C13.1883 4.16447 13.7563 4.34903 14.2961 4.21716L15.357 3.95801C16.2373 3.74296 17.1001 4.3698 17.1676 5.27351L17.249 6.36255C17.2904 6.91672 17.6415 7.39989 18.1557 7.61052L19.1663 8.02443C20.0049 8.36788 20.3345 9.38215 19.8579 10.153L19.2836 11.0818C18.9914 11.5545 18.9914 12.1517 19.2836 12.6244L19.8579 13.5533C20.3345 14.3241 20.0049 15.3384 19.1663 15.6818L18.1557 16.0957C17.6415 16.3064 17.2904 16.7896 17.249 17.3437L17.1676 18.4327C17.1001 19.3364 16.2373 19.9633 15.357 19.7483L14.2961 19.4891C13.7563 19.3572 13.1883 19.5418 12.829 19.9658L12.1231 20.799C11.5373 21.4904 10.4708 21.4904 9.88499 20.799L9.17908 19.9658C8.81982 19.5418 8.25185 19.3572 7.71197 19.4891L6.65112 19.7483C5.77077 19.9633 4.908 19.3364 4.84048 18.4327L4.75913 17.3437C4.71772 16.7896 4.36668 16.3064 3.85242 16.0957L2.84183 15.6818C2.00321 15.3384 1.67366 14.3241 2.15023 13.5533L2.72452 12.6244C3.01676 12.1517 3.01676 11.5545 2.72452 11.0818L2.15023 10.153C1.67366 9.38215 2.00321 8.36788 2.84183 8.02443L3.85242 7.61052C4.36668 7.39989 4.71772 6.91672 4.75913 6.36255L4.84048 5.27351C4.908 4.3698 5.77077 3.74296 6.65112 3.95801L7.71197 4.21716C8.25185 4.34903 8.81982 4.16447 9.17908 3.74047L9.88499 2.90724Z" fill="#0288D1"/>
<path d="M9.90407 13.7783L7.97907 11.8533L7.3374 12.4949L9.90407 15.0616L15.4041 9.56159L14.7624 8.91992L9.90407 13.7783Z" fill="white" stroke="white"/>
</svg>
